<svg id="Flat" height="512" viewBox="0 0 512 512" width="512" xmlns="http://www.w3.org/2000/svg"><path d="m488 256a648.507 648.507 0 0 1 -4.93 81.97c-13.68 107.3-51.07 150.03-51.07 150.03h-408v-48c304.88-26.51 247.35-256.19 218.65-334.2a184.009 184.009 0 0 0 -18.65-1.8s-120-8-112 88c0 0-64-16-48-80s80-48 80-48 16-40 72-40 80 48 80 48c40-48 192 16 192 184z" fill="#3397e8"/><g fill="#a3d4f7"><path d="m256 488s104-56 104-152-56-72-56-72 8-40-32-56-64 16-64 16-72-32-88 32 56 64 56 64-7.068-46.586 40-56c40-8 152 56 40 224z"/><path d="m488 256a648.507 648.507 0 0 1 -4.93 81.97c-51.07-129.97-112.6-213.28-240.42-232.17a184.009 184.009 0 0 0 -18.65-1.8s-120-8-112 88c0 0-64-16-48-80s80-48 80-48 16-40 72-40 80 48 80 48c40-48 192 16 192 184z"/></g></svg>